<svg width="352" height="128" viewBox="0 0 352 128" fill="none" xmlns="http://www.w3.org/2000/svg">
    <path d="M37.07 105.296C37.07 104.357 36.942 102.736 36.686 100.432C36.43 98.128 36.0887 95.5253 35.662 92.624C35.3207 89.6373 34.9367 86.6933 34.51 83.792C34.0833 80.8053 33.614 78.16 33.102 75.856C32.6753 73.4667 32.2913 71.76 31.95 70.736C31.0967 68.176 31.566 66.384 33.358 65.36C35.2353 64.2507 37.838 63.5253 41.166 63.184C44.494 62.8427 46.8833 63.0987 48.334 63.952C49.87 64.72 50.638 65.104 50.638 65.104C51.918 63.824 54.0087 62.928 56.91 62.416C59.8967 61.904 63.0113 61.6907 66.254 61.776C70.4353 61.8613 73.4647 62.5013 75.342 63.696C77.2193 64.8907 78.158 66.1707 78.158 67.536C78.158 68.56 78.03 69.328 77.774 69.84C77.518 70.352 76.494 70.864 74.702 71.376C72.9953 71.8027 69.8807 72.5707 65.358 73.68C62.7127 74.2773 60.75 75.728 59.47 78.032C58.19 80.2507 57.3793 82.8533 57.038 85.84C56.782 88.7413 56.782 91.6427 57.038 94.544C57.294 97.36 57.5927 99.7493 57.934 101.712C58.2753 103.589 58.446 104.613 58.446 104.784C58.446 104.955 58.4887 105.552 58.574 106.576C58.7447 107.515 58.6167 108.581 58.19 109.776C57.8487 110.885 56.9527 111.867 55.502 112.72C54.0513 113.573 51.7473 114 48.59 114C45.4327 114 43.0433 113.573 41.422 112.72C39.8007 111.781 38.6913 110.757 38.094 109.648C37.4967 108.539 37.1553 107.557 37.07 106.704C37.07 105.765 37.07 105.296 37.07 105.296ZM126.952 84.816C123.624 84.816 121.192 84.432 119.656 83.664C118.205 82.8107 117.267 81.9573 116.84 81.104C116.499 80.2507 116.328 79.696 116.328 79.44C116.328 79.184 116.157 78.672 115.816 77.904C115.56 77.136 115.091 76.4107 114.408 75.728C113.725 74.96 112.829 74.576 111.72 74.576C110.611 74.4907 109.544 75.2587 108.52 76.88C107.496 78.5013 106.643 80.464 105.96 82.768C105.277 84.9867 104.851 87.12 104.68 89.168C104.595 91.216 104.808 93.3067 105.32 95.44C105.917 97.5733 106.771 99.3653 107.88 100.816C108.989 102.181 110.312 102.907 111.848 102.992C114.152 103.077 115.56 102.736 116.072 101.968C116.584 101.115 116.84 100.688 116.84 100.688C116.84 100.688 116.925 100.432 117.096 99.92C117.267 99.3227 117.736 98.6827 118.504 98C119.357 97.3173 120.68 96.7627 122.472 96.336C124.264 95.824 126.824 95.6107 130.152 95.696C133.48 95.7813 135.741 96.208 136.936 96.976C138.131 97.744 138.728 98.5973 138.728 99.536C138.813 100.475 138.643 101.285 138.216 101.968C137.789 102.651 137.576 102.992 137.576 102.992C137.576 102.992 136.979 103.547 135.784 104.656C134.589 105.765 132.84 107.045 130.536 108.496C128.317 109.947 125.587 111.227 122.344 112.336C119.101 113.445 115.389 114 111.208 114C102.931 114 96.36 111.739 91.496 107.216C86.7173 102.693 84.1573 96.2933 83.816 88.016C83.6453 83.92 84.3707 80.2507 85.992 77.008C87.6133 73.7653 89.7893 71.0347 92.52 68.816C95.2507 66.512 98.28 64.7627 101.608 63.568C104.936 62.288 108.179 61.5627 111.336 61.392C114.579 61.2213 117.651 61.6907 120.552 62.8C123.453 63.824 126.056 65.232 128.36 67.024C130.749 68.816 132.669 70.6933 134.12 72.656C135.571 74.6187 136.381 76.4533 136.552 78.16C136.723 79.7813 136.339 81.0613 135.4 82C134.547 82.9387 133.437 83.6213 132.072 84.048C130.792 84.3893 129.64 84.6027 128.616 84.688C127.592 84.7733 127.037 84.816 126.952 84.816ZM146.62 40.272C146.62 40.272 146.705 39.888 146.876 39.12C147.132 38.352 147.644 37.4987 148.412 36.56C149.18 35.6213 150.375 34.8107 151.996 34.128C153.617 33.36 155.836 33.0187 158.652 33.104C161.297 33.1893 163.26 33.7867 164.54 34.896C165.82 36.0053 166.588 37.4133 166.844 39.12C167.1 40.7413 167.015 42.4053 166.588 44.112C165.991 46.416 165.607 49.0187 165.436 51.92C165.265 54.8213 165.18 57.3387 165.18 59.472C165.265 61.52 165.308 62.544 165.308 62.544C172.135 62.544 177.639 63.3973 181.82 65.104C186.087 66.8107 189.372 68.944 191.676 71.504C193.98 74.064 195.559 76.624 196.412 79.184C197.351 81.744 197.905 83.8773 198.076 85.584C198.247 87.2907 198.332 88.144 198.332 88.144C198.332 88.144 198.204 89.04 197.948 90.832C197.777 92.5387 197.308 94.672 196.54 97.232C195.772 99.792 194.535 102.352 192.828 104.912C191.121 107.472 188.775 109.648 185.788 111.44C182.801 113.147 178.961 114 174.268 114C168.38 114 163.516 112.677 159.676 110.032C155.921 107.387 152.977 103.888 150.844 99.536C148.711 95.0987 147.175 90.2773 146.236 85.072C145.297 79.7813 144.743 74.5333 144.572 69.328C144.487 64.0373 144.615 59.216 144.956 54.864C145.297 50.4267 145.639 46.8853 145.98 44.24C146.407 41.5947 146.62 40.272 146.62 40.272ZM164.284 72.656C164.284 72.656 164.241 73.6373 164.156 75.6C164.071 77.4773 164.071 79.824 164.156 82.64C164.327 85.456 164.753 88.272 165.436 91.088C166.119 93.904 167.228 96.2933 168.764 98.256C170.385 100.133 172.561 101.029 175.292 100.944C177.255 100.944 178.705 100.176 179.644 98.64C180.583 97.0187 181.18 95.184 181.436 93.136C181.777 91.088 181.905 89.2533 181.82 87.632C181.735 86.0107 181.692 85.072 181.692 84.816C181.692 84.56 181.521 83.792 181.18 82.512C180.924 81.1467 180.241 79.6533 179.132 78.032C178.108 76.3253 176.401 74.96 174.012 73.936C171.708 72.8267 168.465 72.4 164.284 72.656ZM255.525 75.344C255.269 79.6107 254.074 83.0667 251.941 85.712C249.808 88.272 247.205 90.2347 244.133 91.6C241.146 92.88 238.16 93.776 235.173 94.288C232.186 94.7147 229.669 94.928 227.621 94.928C225.658 94.928 224.677 94.928 224.677 94.928C225.189 97.9147 225.914 100.048 226.853 101.328C227.792 102.608 228.816 103.333 229.925 103.504C231.12 103.675 232.229 103.589 233.253 103.248C234.277 102.821 235.088 102.352 235.685 101.84C236.368 101.328 236.709 101.072 236.709 101.072C236.709 101.072 237.178 100.688 238.117 99.92C239.056 99.152 240.506 98.4267 242.469 97.744C244.517 96.976 247.077 96.592 250.149 96.592C253.648 96.592 255.994 97.0613 257.189 98C258.469 98.8533 259.066 99.8773 258.981 101.072C258.981 102.181 258.725 103.205 258.213 104.144C257.786 104.997 257.573 105.424 257.573 105.424C257.573 105.424 257.189 105.851 256.421 106.704C255.738 107.472 254.458 108.411 252.581 109.52C250.704 110.629 248.101 111.653 244.773 112.592C241.445 113.445 237.178 113.915 231.973 114C226.938 114.085 222.714 113.403 219.301 111.952C215.888 110.501 213.072 108.624 210.853 106.32C208.634 103.931 206.928 101.456 205.733 98.896C204.624 96.2507 203.813 93.8187 203.301 91.6C202.874 89.296 202.661 87.504 202.661 86.224C202.661 84.944 202.746 83.28 202.917 81.232C203.173 79.184 203.728 77.0507 204.581 74.832C205.52 72.528 206.928 70.352 208.805 68.304C210.682 66.256 213.242 64.592 216.485 63.312C219.813 62.032 224.037 61.3493 229.157 61.264C235.557 61.1787 240.549 61.7333 244.133 62.928C247.717 64.1227 250.32 65.5733 251.941 67.28C253.562 68.9867 254.544 70.608 254.885 72.144C255.312 73.68 255.525 74.7467 255.525 75.344ZM222.885 86.096C228.09 85.6693 231.973 84.56 234.533 82.768C237.093 80.976 238.586 78.9707 239.013 76.752C239.44 74.5333 239.013 72.656 237.733 71.12C236.538 69.4987 234.704 68.7733 232.229 68.944C229.754 69.0293 227.877 69.968 226.597 71.76C225.317 73.4667 224.421 75.472 223.909 77.776C223.397 79.9947 223.098 81.9573 223.013 83.664C222.928 85.2853 222.885 86.096 222.885 86.096ZM310.08 114C307.691 114 305.344 113.616 303.04 112.848C300.821 112.08 299.584 110.672 299.328 108.624C299.072 107.515 298.859 106.448 298.688 105.424C298.517 104.4 298.859 103.461 299.712 102.608C300.907 101.328 302.656 100.475 304.96 100.048C307.264 99.6213 309.611 99.5787 312 99.92C314.389 100.261 316.309 100.901 317.76 101.84C318.784 102.523 319.467 103.419 319.808 104.528C320.149 105.552 320.363 106.619 320.448 107.728C320.704 109.264 320.277 110.501 319.168 111.44C318.059 112.379 316.651 113.061 314.944 113.488C313.237 113.829 311.616 114 310.08 114Z" fill="white"/>
</svg>